<?xml version="1.0" encoding="utf-8"?>
<!DOCTYPE svg PUBLIC "-//W3C//DTD SVG 1.1//EN" "http://www.w3.org/Graphics/SVG/1.1/DTD/svg11.dtd">
<svg version="1.1" id="Layer_1" xmlns="http://www.w3.org/2000/svg" xmlns:xlink="http://www.w3.org/1999/xlink" x="0px" y="0px"
	 viewBox="0 0 4139.0889 1653.1136" enable-background="new 0 0 4139.0889 1653.1136" xml:space="preserve">
<g>
	<path d="M2232.4055,1448.5836c-17.7715-54.8425-42.0127-68.5587-99.5461-59.2892c-76.5388,12.3315-152.5391,7.3478-229.3646,0.6613
		c-72.6376-6.3223-139.2222-34.4198-209.5701-47.9109c-0.0737,0.28-0.1273,0.5634-0.2104,0.8394
		c15.2449,23.8654,43.4154,34.0814,59.9008,57.859c18.1118,26.1234,19.7677,52.0874,6.4268,77.066
		c-15.5369,29.0902-42.6678,40.1202-74.5293,25.5996c-20.246-9.2268-31.5775-26.5884-23.0353-49.3096
		c14.3591-38.1897,42.4413-20.2037,68.1788-15.5997c-20.6854-21.2382-43.1285-41.0823-73.1493-19.5554
		c-28.1571,20.1891-35.0126,50.12-22.5128,83.0084c7.4917,19.7114,22.3708,32.7792,40.7546,42.6134
		c53.1632,28.4406,99.3584,7.3987,143.2869-21.4349c25.8716-16.9805,47.5068-40.7896,74.1663-56.0973
		c34.6494-19.8964,74.7074-27.587,108.6884-1.0979c30.8861,24.0776,39.9159,60.8158,30.4655,99.2031
		c-5.1902,21.08-15.1604,40.9836-22.9764,61.418h21.9502c23.5284-39.4189,41.9884-81.033,50.7008-126.2335
		c7.1609-37.1461,33.3018-51.5214,66.1399-54.3381c33.8523-2.9032,52.8362,19.469,65.9602,47.9805
		c14.855,32.2694,16.105,67.5659,21.9099,102.139C2264.5095,1545.552,2247.9531,1496.5601,2232.4055,1448.5836z"/>
	<path d="M2130.105,1626.5569c1.0286-39.9093-0.689-79.2931-15.4214-117.3108c-14.479-37.3643,3.396-49.3344,41.4956-48.3215
		c33.6287,59.7734,2.8977,112.2294-15.0991,165.6323C2137.4216,1626.5569,2133.7632,1626.5569,2130.105,1626.5569z"/>
	<path d="M3280.3306,1167.8245c-91.4197-50.3602-183.2666-97.4644-292.7012-94.0015
		c-57.6528,1.8245-111.7634,11.316-163.9292,36.7644c-40.8911,19.9485-83.4956,36.7516-126.272,52.402
		c-141.4185,51.7397-307.9731-50.299-314.7397-223.1116c-3.4602-88.3708,38.0869-155.0942,113.9312-197.9395
		c73.293-41.4041,143.8491-29.8759,209.2336,21.2452c45.7009,35.7314,65.2073,97.4937,47.5347,152.2653
		c-16.657,51.6254-48.4866,78.8459-98.1094,81.1575c-38.991,1.8163-73.1941-10.2964-91.9941-46.8983
		c-14.4094-28.0539-14.4358-57.3175,12.3149-79.559c25.6646-21.3383,51.283-18.6101,75.645-1.1954
		c-2.7244,17.3615-10.7773,13.3181-17.2305,13.3186c-17.5647,0.0015-26.9958,10.0365-29.5183,26.2499
		c-2.1873,14.0591,4.5767,25.4458,16.6255,31.9173c15.9395,8.5612,31.3325,6.4089,45.2407-6.102
		c37.8887-34.0823,21.9871-109.7271-26.8635-127.007c-72.2844-25.5693-153.4243,27.8999-158.7363,104.6033
		c-8.0908,116.8275,90.8726,190.9995,214.0974,160.2841c51.3298-12.7947,102.9287-24.7125,153.7437-39.3282
		c125.5781-36.1191,237.9658-0.9373,344.748,62.7869c32.4221,19.3483,67.6807,35.9227,90.9146,67.9893
		C3282.9561,1165.0541,3281.644,1166.4403,3280.3306,1167.8245z"/>
	<path d="M3594.7644,554.7373c-15.187,9.4273-31.4915,3.2616-46.8882,4.3106c-49.0635,3.3429-83.5276,27.9924-99.0986,73.5546
		c-15.7725,46.1503-10.6228,89.5242,29.8843,124.1569c62.2979,53.2634,137.3684,82.0367,211.7107,111.9617
		c81.2988,32.7251,162.709,64.3333,233.0051,118.9853c83.3953,64.8365,139.3662,143.6529,138.3669,253.9234
		c-0.0986,10.9055-0.5325,22.0936-3.0598,32.61c-2.4795,10.317-7.8291,19.9442-17.042,31.5963
		c14.3079-92.1989-20.4277-158.8226-98.5908-203.2125c-82.4304-46.8137-157.5718-24.8291-234.051,32.7355
		c4.6589-96.7933-52.4702-140.9219-124.2739-174.8624c-66.1885-31.2859-130.8745-66.0439-182.9529-118.6352
		c-98.1809-99.1482-86.0215-232.4116,25.6948-297.5669C3476.6074,515.636,3550.2119,520.0039,3594.7644,554.7373z"/>
	<path d="M3185.0391,1043.2001c-38.261-1.2448-66.157-27.7657-98.9526-41.9626c-104.7029-45.3254-207.5012-50.8307-310.7625,2.3218
		c-5.9663,3.071-12.8501,4.3603-22.2668,7.4501c81.4932-138.2246,72.3794-253.665-27.177-307.6052
		c-103.3027-55.97-252.186-64.1757-346.3425,108.0722c9.8616-79.8093,100.7549-171.4168,186.4314-183.831
		c168.7803-24.4554,305.8289,28.4448,400.7507,173.7598c60.2346,92.2124,133.7661,171.767,217.1731,242.8709L3185.0391,1043.2001z"
		/>
	<path d="M1469.3436,1066.2328c-13.3282,56.6552-38.502,78.5245-77.7852,74.3646c-57.5369-6.0927-98.6879-47.6332-98.2061-99.1354
		c0.7441-79.5264,82.4045-129.506,162.4095-98.4606c38.2091,14.827,68.6495,40.2785,93.7969,72.974
		c41.2308,53.6062,84.8329,105.1139,140.6313,144.7551c111.6501,79.3206,227.7502,90.9832,348.9817,23.1547
		c22.1138-12.3727,43.343-26.3268,69.2322-42.1493c38.8999,133.073,136.155,85.6127,233.707,67.9966
		c-43.3291,46.9315-92.1882,59.0433-136.9434,74.1078c-253.8846,85.4578-461.1829,20.0785-624.1563-194.0332
		c-26.615-34.9659-52.3231-70.1843-92.8284-91.1475c-14.7792-7.6489-28.748-15.7923-46.049-14.6191
		c-30.2657,2.0526-59.202,7.4833-70.6521,40.8329c-8.1708,23.7986,1.9448,43.3575,20.6886,57.6836
		C1419.049,1103.1007,1444.5098,1098.9224,1469.3436,1066.2328z"/>
	<path d="M1690.811,1122.2306c41.5674-1.6278,72.8452,29.96,113.8512,33.3997c123.1849,10.3331,203.1711-54.8104,268.2858-147.8094
		c63.7827-91.097,120.6609-187.4987,203.8037-263.5902c45.9697-42.071,98.9348-72.0002,160.0442-90.4476
		c-54.3757,56.2663-111.5686,109.1848-113.8726,195.2458c-2.0884,78.0123,17.5332,150.4356,52.885,217.46
		c-9.4109,7.3842-13.7488,4.3643-17.8064,0.97c-118.0222-98.7317-198.271-55.7285-283.0564,26.0764
		c-37.6528,36.3291-76.1744,68.7217-126.28,83.261c-95.0536,27.582-182.8304,16.2986-256.9093-55.6029
		C1691.7515,1121.1946,1690.811,1122.2306,1690.811,1122.2306z"/>
	<path d="M657.9493,741.8922c-11.6838-83.2596-58.8008-144.3239-135.9344-179.8743
		c-91.5639-42.2009-218.2824-6.6979-236.8953,115.0146c-3.2381,21.1691-11.933,42.5955-22.62,61.3282
		c-32.112,56.2861-102.6569,69.2855-150.6327,31.2485c-29.6348-23.4955-34.2301-53.8398-18.1239-82.5924
		c17.1472-30.6155,43.9727-15.7204,67.9257,7.2071c-4.2108-37.5286-24.7328-37.6438-45.5924-35.4949
		c-30.8085,3.1745-42.9652,25.0496-47.882,51.9554c-6.6652,36.4715,6.2378,66.2189,39.0599,82.6855
		c43.1246,21.6353,86.5962,22.2382,130.5126-3.2596c50.5373-29.3408,58.4284-80.0958,73.0448-129.0148
		c17.8064-59.5852,70.845-91.8345,130.9293-83.0178c60.5103,8.8784,102.5725,54.7729,107.0579,114.0748
		c5.7287,75.7491-37.83,127.6281-85.6704,176.1237c-49.7375,50.4208-91.2183,105.9379-107.7037,175.0392
		c-19.1019,80.0684-17.588,157.9617,49.4254,219.3796c0.3015-0.1775,0.5841-0.373,0.9003-0.5332
		c1.4844-16.1725-9.6179-28.7218-14.2172-43.0267c-33.8564-105.3184-13.885-198.1047,62.7999-277.9896
		c48.3817-50.4,78.1144-49.6216,123.187,4.0781C644.3458,892.8323,669.313,822.8682,657.9493,741.8922z"/>
	<path d="M1833.2988,128.6515c119.4275,7.8593,232.874-22.0104,348.3855-46.3507
		c214.7395-45.2494,377.8645,33.5123,489.2837,223.896c34.124,58.3082,65.3369,117.9823,90.7971,180.9504
		c23.8274,58.9293,50.9937,117.0572,101.6855,163.7803c-107.5212-56.3547-215.8438-85.489-331.8306-35.2537
		c-7.8428-14.4968,3.1316-17.3881,9.2109-21.9519c7.2629-5.4519,15.031-10.395,23.074-14.618
		c64.6394-33.9395,86.5383-90.8517,84.7568-159.5967c-5.7451-221.6896-318.6626-408.351-515.199-306.3099
		c-40.1687,20.8554-76.1221,49.8288-115.7875,76.2377C1956.8132,169.3704,1895.0559,149.011,1833.2988,128.6515z"/>
	<path d="M3054.4521,1136.379c70.2671-6.772,131.6677,19.5619,189.22,55.4866c92.3562,57.6501,187.5222,104.0504,299.3616,111.1034
		c84.4324,5.3246,159.2324-13.5184,232.876-75.8047c-17.0837,67.3564,4.9202,108.9897,53.323,137.2269
		c47.2974,27.5925,98.1709,19.4586,150.2639,13.5989c-47.938,42.6504-107.6533,52.692-166.7427,61.988
		c-158.0085,24.8585-294.5632-28.6281-421.0413-118.079c-81.6626-57.7555-156.7358-125.7561-253.6965-159.8801
		C3110.3557,1152.2844,3082.5151,1145.0178,3054.4521,1136.379z"/>
	<path d="M3370.1506,856.9305c-39.3525-11.6782-55.5146-45.9117-71.353-77.9806
		c-54.8037-110.9638-63.2241-220.9034,19.5896-323.2288c80.5825-99.5683,187.0745-118.9049,306.5232-92.8914
		c49.1541,10.7047,57.5959,52.7032,64.8352,91.3155c7.123,37.9933,11.1438,75.7611,45.1543,106.6949
		c-34.125,12.7879-53.387-5.02-72.9741-18.5121c-39.3828-27.1273-79.9248-51.128-128.0044-59.4502
		c-135.3533-23.4286-246.2605,78.9805-236.2668,216.0475c4.5952,63.0277,24.5857,117.0422,73.3611,158.7219L3370.1506,856.9305z"/>
	<path d="M2447.1184,552.4402c26.5989,16.3072,52.6973,22.1753,78.8071-1.5811c20.031-18.2255,24.7539-41.5336,17.1611-65.021
		c-10.2979-31.8559-34.4741-52.6854-68.1812-55.7418c-52.4165-4.753-100.6006,12.9844-147.6348,34.0573
		c-131.573,58.9491-267.5803,82.9397-412.6555,47.8908c56.521-17.427,110.0919-39.8877,152.2439-83.3638
		c41.9011,43.5738,86.9658,64.0263,143.9817,39.312c86.9465-37.6881,126.9197-100.7616,101.9602-196.1242
		c107.9463-6.1605,237.6702,84.4042,265.4739,180.925c18.7488,65.0867-10.5205,119.5195-71.0459,130.0423
		c-26.7122,4.6441-52.1328,3.2266-59.1865-31.1682L2447.1184,552.4402z"/>
	<path d="M4016.8752,747.1146c4.009-31.2333,40.6494-62.6066,0.4446-93.44c-25.321-8.611-51.9172,9.7788-83.0867-10.9232
		c-8.0996-65.7529-58.0984-73.4028-119.3982-70.4337c-47.802,2.3153-82.8564-28.8746-89.1799-79.7574
		c-5.9858-48.1666-15.136-92.9391-48.0356-126.6572c4.1926-23.8542,15.4604-36.9025,37.6646-46.9181
		c36.741,30.4335,81.9651,43.1481,131.0852,52.1084c71.4209,13.0283,81.1514,74.9029,86.6128,133.9253
		c16.3909,22.7166,44.7256,16.6477,61.5291,28.1289c18.8044,15.623,8.9309,37.2588,18.1462,53.0491
		c78.9153,37.3752,79.9382,94.5407,2.8721,159.9574L4016.8752,747.1146z M3880.1335,484.6847
		c9.2686-42.1366,9.2686-42.1366-51.366-44.1122C3840.5212,459.8416,3853.5715,476.1738,3880.1335,484.6847z"/>
	<path d="M1273.1405,999.5004c20.5408-47.8231,60.7689-66.0889,106.9401-81.5662c-19.0109-18.0127-38.1422-14.9608-55.9445-16.7319
		c-61.0342-6.073-119.8015,7.2553-178.8488,20.0752c-136.6835,29.6771-248.0084,94.0538-314.4015,222.8944
		c-13.3344,25.877-30.4052,49.8032-45.1235,74.9968c-36.3254,62.1843-92.2271,101.9482-153.5171,135.6678
		c64.3151-1.0751,113.1456-31.3342,149.7015-82.778c20.0665-28.2388,38.6057-57.6466,56.4938-87.3357
		c102.5337-170.1848,235.2233-198.8429,399.9097-86.7001c18.5232,12.615,34.0962,32.3022,67.5078,34.4586
		C1272.8914,1089.3267,1251.0564,1050.9139,1273.1405,999.5004z"/>
	<path d="M2599.5156,410.0923c-46.7532-94.0988-110.0105-160.0537-199.4014-196.7413
		c-74.9124-30.7453-151.4922-42.0679-227.0764-0.749c-12.531,6.85-24.6997,16.1821-33.8401,27.0541
		c-22.4465,26.6987-26.1748,56.5154-3.561,84.8315c16.0703,20.123,38.2051,31.0094,62.4121,14.1931
		c31.0161-21.5465,20.9246-49.6374,0.5256-82.7023c38.3965,4.4356,56.4949,21.2703,64.5093,49.1187
		c10.2559,35.638-1.9392,65.5977-30.2405,87.4928c-38.3901,29.7008-80.9917,33.0099-122.9656,8.6876
		c-42.3589-24.5453-67.5635-61.3114-63.9851-112.4141c4.7969-68.5014,60.6025-127.886,139.8723-150.7215
		C2349.1182,91.0845,2568.5676,230.7332,2599.5156,410.0923z"/>
	<path d="M3335.8237,1570.411c11.8711-41.6398,12.6357-82.5769-8.4316-121.8676c-11.3013-21.0776-21.9229-43.9109-52.4053-38.8407
		c-28.7991,4.7905-44.75,22.0531-48.24,51.2504c-5.7959,48.4873-26.6328,86.6833-86.49,111.2135
		c36.0518-40.0629,44.3804-75.1615,13.7712-110.8164c-30.8889-35.9805-69.5117-33.0358-110.4873-23.3942
		c-39.0159,9.1803-78.4592,16.6619-117.8967,23.895c-29.9766,5.4979-58.9556-1.8265-84.6687-15.9608
		c-29.0835-15.9868-40.0088-44.3071-27.1958-74.72c12.7412-30.2421,37.5181-51.0431,73.22-45.1625
		c27.5645,4.5399,41.4688,21.4431,27.6426,54.9115c-18.8567-5.0513-34.0269-38.3008-58.9177-10.532
		c-10.0461,33.0591,8.5984,50.1733,38.429,57.8978c45.2173,11.7084,89.1982,9.9568,133.4915-9.4413
		c76.6724-33.5782,153.1902-69.0605,238.9849-73.7457c57.4319-3.1362,82.5784,16.4598,105.1697,82.4236
		c19.8052,57.8281,4.8076,114.8934-37.4536,142.5082L3335.8237,1570.411z"/>
	<path d="M3874.1704,1232.3854c-33.8818,16.3118-48.384,34.0686-26.8281,57.8456c19.2454,21.229,44.1721,24.316,69.3994,8.0773
		c25.9656-16.714,40.1028-39.38,24.6858-69.3379c-18.5171-35.9813-53.0845-47.9043-90.821-52.287
		c-58.3884-6.781-105.8923,23.2922-154.7319,47.3198c-36.1182,17.7695-71.282,37.252-111.5769,44.0785
		c-23.1343,3.9192-46.2612,6.7238-69.7004-7.4946c93.1479-7.7272,164.3938-57.9159,236.6321-109.4877
		c97.4978-69.6051,227.7351-27.3622,258.3689,79.6495c15.8584,55.3993-6.5159,104.9508-57.1638,126.5966
		c-46.8015,20.0016-109.8298,1.2966-135.96-40.9303c-13.1597-21.2661-17.7673-43.8146-6.1567-67.662
		C3820.9636,1226.8873,3837.7847,1222.4811,3874.1704,1232.3854z"/>
	<path d="M2778.0195,1428.2823c-30.2156-41.566-29.1328-80.2083,11.5046-125.213
		c73.4531-81.3468,219.7141-170.8311,374.2717-97.2188c57.4985,27.3851,110.7585,61.0073,160.4255,103.9865
		c-65.1543-19.3182-131.3137-29.1987-197.3857-38.8193c-77.8528-11.3361-156.2795-13.9137-233.3081,5.8051
		c-84.5679,21.6488-116.6812,65.1831-116.593,152.5367L2778.0195,1428.2823z"/>
	<path d="M1749.3297,1325.1633c-27.8411,7.5651-38.2943-4.8651-49.7795-12.5382c-119.0212-79.5154-250.7191-93.573-388.6986-76.5852
		c-54.3451,6.6909-108.3895,6.0449-165.3199-8.0497c140.2329-16.8995,294.3851,4.1509,361.5861-170.387
		C1598.3344,1132.1075,1626.4446,1266.8417,1749.3297,1325.1633z"/>
	<path d="M2772.9324,1194.9576c-118.3423,53.192-238.1501,50.3622-356.9155-0.9985
		c-39.8113-17.2166-74.8857-45.1327-112.9973-66.6102c-32.5459-18.3408-66.3918-29.4082-100.5701-3.5668
		c10.925,52.2255,20.1184,55.4467,75.4543,24.8663c0.6555,46.5747-26.9126,57.5405-62.5647,55.6041
		c-40.6982-2.2103-72.9031-39.6449-73.8281-81.6842c-0.8445-38.3723,28.3696-71.2871,69.7305-78.5404
		c32.8901-5.7679,61.2961,6.1439,87.4995,23.8407c33.2434,22.4514,65.6746,46.1089,98.3711,69.3652
		c96.1392,68.3817,200.6963,92.9009,316.1995,61.0597c19.0085-5.2402,38.1565-9.9729,57.2402-14.9401
		C2771.3452,1187.2216,2772.1387,1191.0895,2772.9324,1194.9576z"/>
	<path d="M2661.4546,195.6777c49.2668,46.2945,81.4475,52.1685,136.231,21.5567c26.7651-14.9559,51.9045-27.3002,84.8508-0.9593
		c-75.6111,13.4536-92.0752,64.3819-93.9873,129.0835c-1.6902,57.1941,13.8223,111.1619,29.3215,178.9908
		c-36.3735-39.1956-44.0212-77.1596-58.6223-110.9226c-27.502-63.5951-52.8159-128.0674-90.3936-186.7265
		c-6.0361-9.4221-10.7607-19.1693-6.2747-30.7648L2661.4546,195.6777z"/>
	<path d="M514.7189,1325.4227c71.6246-13.9349,135.9291-18.1963,159.5334-82.5681c-2.3912-27.6221-28.8759-29.4899-34.1124-52.0774
		c43.1697-11.0461,83.4531-24.8717,127.4028-15.4663C750.5425,1280.478,648.4205,1344.9182,514.7189,1325.4227z"/>
	<path d="M3413.5225,26.5568c78.1455,95.8241,160.3674,187.9423,258.7622,255.9678c6.4756,15.6516,1.261,23.2381-3.552,31.0235
		c-3.8572,6.2393-7.3833,12.6831-16.0215,27.6239C3554.1289,242.3861,3477.4636,140.1005,3413.5225,26.5568z"/>
	<path d="M1814.8163,332.9998c66.8131-12.7112,132.5728-21.2936,194.4423-61.7656c-0.4199,42.7273,2.8325,79.3781,23.8315,123.0816
		C1954.8739,368.2246,1886.7231,345.5167,1814.8163,332.9998z"/>
	<path d="M3216.1931,341.6589c62.175-31.6122,120.885-26.0683,190.7346-0.7592c-31.5476,22.2236-55.5288,39.1171-83.3059,58.6846
		C3298.0193,362.2396,3255.2922,356.0927,3216.1931,341.6589z"/>
	<path d="M3372.2273,250.7621c69.6748,4.2334,133.6707,23.0808,193.835,60.5954c-33.5156,17.7358-33.5156,17.7358-103.6699,13.4292
		C3438.1934,294.5685,3405.2092,273.2296,3372.2273,250.7621z"/>
	<path d="M3296.427,1430.3403c20.6108,68.0121,4.0972,116.5771-62.8394,169.0728c22.8474-45.9585,17.5608-87.2198,15.4021-128.8446
		C3246.9941,1432.0853,3253.9182,1428.1072,3296.427,1430.3403z"/>
	<path d="M3292.4221,437.7714c-14.3408,22.5719-28.6812,45.1439-44.3267,69.7691c-29.4844,0-59.4292,0-95.8025,0
		c37.2429-44.4728,84.3735-61.388,130.7002-79.6738C3286.1362,431.1682,3289.2793,434.4698,3292.4221,437.7714z"/>
	<path d="M794.7316,1134.132c-20.7624-20.0685-39.465-37.1455-74.6137-38.2324c38.1191-33.5363,74.3018-38.6108,123.1589-32.5323
		C825.4685,1089.3265,811.1623,1110.1808,794.7316,1134.132z"/>
	<path d="M3227.4875,559.4898c0,30.5534,0,50.134,0,72.5925c-23.7063,4.6675-47.457,9.3437-75.7029,14.9049
		C3165.2659,609.34,3192.6025,588.8176,3227.4875,559.4898z"/>
	<path d="M836.7327,994.1008c28.7162-13.0502,53.7587-20.6728,81.4337-8.4976c-2.435,23.9382-21.8566,30.5063-34.2421,45.5906
		C868.4374,1019.0211,853.5205,1007.2962,836.7327,994.1008z"/>
	<path d="M3234.7019,690.6771c17.9524,14.0284,19.2961,31.0372,19.3628,51.6279c-16.9736,7.959-34.2124,16.0425-56.4934,26.4904
		C3201.4321,735.1151,3213.3342,711.5707,3234.7019,690.6771z"/>
	<path d="M3267.1792,783.4837c20.8252,8.436,24.8394,22.3842,30.9924,36.5694c-8.8374,12.5117-18.0017,25.4853-30.1704,42.7125
		C3254.2522,835.413,3258.1484,812.1413,3267.1792,783.4837z"/>
	<path d="M1011.8624,940.2277c-36.2347,32.8418-46.6757,9.931-58.9811-20.7186
		C976.933,918.272,994.5798,921.9028,1011.8624,940.2277z"/>
	<path d="M428.8607,1290.7251c-0.2117,0.2968-0.3939,0.6143-0.627,0.8976c16.8377,10.6034,31.9955,26.0853,60.4648,22.5819
		C466.2526,1302.6782,450.6956,1287.8895,428.8607,1290.7251z"/>
	<path d="M2467.8218,494.0179c-3.9829,20.5082-26.6111,34.4091-20.7034,58.4222l0.9241-0.7727
		c-18.7729-28.2776-11.3169-47.0065,20.6787-56.8017L2467.8218,494.0179z"/>
	<path d="M3284.2659,1163.6656c-1.3088,1.3887-2.6218,2.7745-3.9348,4.1586c12.2842,16.8785,25.6453,31.5981,49.4014,25.4917
		C3314.5774,1183.4327,3299.4209,1173.5488,3284.2659,1163.6656z"/>
	<polygon points="3371.0156,857.6473 3372.0508,859.4127 3370.1506,856.9305 	"/>
	<polygon points="4015.5293,746.1541 4016.5415,750.3102 4016.8752,747.1146 	"/>
	<polygon points="2662.5801,195.9355 2658.1987,197.1535 2661.4546,195.6777 	"/>
	<path d="M3183.8928,1044.276c1.5752,1.8567,3.1501,3.7134,2.7593,3.2527c0.1729,0.4631-0.7202-1.9327-1.613-4.3286
		L3183.8928,1044.276z"/>
	<path d="M2776.9346,1429.3595c1.8386,1.2709,3.6772,2.5417,3.3469,2.3135c0.2227,0.3339-1.0178-1.5255-2.2603-3.3878
		C2778.0195,1428.2823,2776.9346,1429.3595,2776.9346,1429.3595z"/>
	<polygon points="3334.3457,1570.0299 3337.5935,1572.1266 3335.8237,1570.411 	"/>
</g>
</svg>
